<svg xmlns="http://www.w3.org/2000/svg"
    xmlns:xlink="http://www.w3.org/1999/xlink">

    <symbol id="play" viewBox="0 0 120 120">
    <circle opacity="0.3" cx="60" cy="60" r="60" fill="#586291"/>
    <path d="M81.3175 58.615C82.0301 58.9898 82.0301 60.0102 81.3175 60.385L50.7155 76.4826C50.0496 76.8329 49.25 76.35 49.25 75.5976L49.25 43.4024C49.25 42.65 50.0496 42.1671 50.7155 42.5174L81.3175 58.615Z" fill="#262A3F"/>
    </symbol>

    <symbol id="arrow_left" width="48" height="12" viewBox="0 0 48 12">
    <path fill-rule="evenodd" clip-rule="evenodd" d="M10 11.7734L0 5.99993L10 0.226432V4.99993L48 4.99993V6.99993L10 6.99993V11.7734Z"/>
    </symbol>

    <symbol id="arrow_right" width="48" height="12" viewBox="0 0 48 12">
    <path fill-rule="evenodd" clip-rule="evenodd" d="M38 0.226569L48 6.00007L38 11.7736L38 7.00007L-1.18432e-06 7.00007L-8.34626e-07 5.00007L38 5.00007L38 0.226569Z"/>
    </symbol>

</svg>